# xmcd
#
# Track frame offsets:
#	150
#	29196
#	57329
#	80959
#	101397
#	126074
#	157357
#	197835
#	213968
#	227683
#
# Disc length: 3242 seconds
#
# Revision: 1
# Processed by: cddbd v1.5.2PL0 Copyright (c) Steve Scherf et al.
# Submitted via: audiograbber 1.83.01
#
DISCID=920ca80a
DTITLE=Goodfellows - Cruisin' Lady
DYEAR=2003
DGENRE=Blues
TTITLE0=Automatic
TTITLE1=Calm down
TTITLE2=Can't hold out
TTITLE3=V8 Cadillac
TTITLE4=Crazy mixed up world
TTITLE5=Cruisin' Lady
TTITLE6=Quarter to twelve
TTITLE7=Tell me
TTITLE8=That's just fine
TTITLE9=Hightone Hop
EXTD=
EXTT0=
EXTT1=
EXTT2=
EXTT3=
EXTT4=
EXTT5=
EXTT6=
EXTT7=
EXTT8=
EXTT9=
PLAYORDER=
